<svg width="150" height="200" viewBox="0 0 150 200" fill="none" xmlns="http://www.w3.org/2000/svg">
<rect width="150" height="200" rx="10" fill="url(#paint0_radial_111_348)" fill-opacity="0.24"/>
<path d="M12.0767 48.2H14.7047V50H9.72473V41.54H12.0767V48.2ZM11.7369 61.424V62.804H14.4369V64.592H11.7369V66.116H14.7969V68H9.38489V59.54H14.7969V61.424H11.7369ZM13.4947 84.62H10.4947L10.0387 86H7.5667L10.6507 77.54H13.3627L16.4347 86H13.9507L13.4947 84.62ZM12.9067 82.82L11.9947 80.084L11.0947 82.82H12.9067ZM11.6079 95.54C12.4959 95.54 13.2719 95.72 13.9359 96.08C14.6079 96.432 15.1239 96.928 15.4839 97.568C15.8439 98.208 16.0239 98.94 16.0239 99.764C16.0239 100.58 15.8399 101.308 15.4719 101.948C15.1119 102.588 14.5959 103.092 13.9239 103.46C13.2599 103.82 12.4879 104 11.6079 104H8.25989V95.54H11.6079ZM11.4279 101.924C12.1159 101.924 12.6559 101.736 13.0479 101.36C13.4399 100.984 13.6359 100.452 13.6359 99.764C13.6359 99.068 13.4399 98.532 13.0479 98.156C12.6559 97.772 12.1159 97.58 11.4279 97.58H10.6119V101.924H11.4279ZM15.5415 116.36C15.5415 116.872 15.4215 117.34 15.1815 117.764C14.9495 118.18 14.5935 118.516 14.1135 118.772C13.6415 119.02 13.0615 119.144 12.3735 119.144H11.2095V122H8.85755V113.54H12.3735C13.0535 113.54 13.6295 113.66 14.1015 113.9C14.5815 114.14 14.9415 114.472 15.1815 114.896C15.4215 115.32 15.5415 115.808 15.5415 116.36ZM12.1455 117.272C12.8095 117.272 13.1415 116.968 13.1415 116.36C13.1415 115.744 12.8095 115.436 12.1455 115.436H11.2095V117.272H12.1455ZM13.1783 131.54V140H10.8263V131.54H13.1783ZM15.5415 152.36C15.5415 152.872 15.4215 153.34 15.1815 153.764C14.9495 154.18 14.5935 154.516 14.1135 154.772C13.6415 155.02 13.0615 155.144 12.3735 155.144H11.2095V158H8.85755V149.54H12.3735C13.0535 149.54 13.6295 149.66 14.1015 149.9C14.5815 150.14 14.9415 150.472 15.1815 150.896C15.4215 151.32 15.5415 151.808 15.5415 152.36ZM12.1455 153.272C12.8095 153.272 13.1415 152.968 13.1415 152.36C13.1415 151.744 12.8095 151.436 12.1455 151.436H11.2095V153.272H12.1455ZM11.7369 169.424V170.804H14.4369V172.592H11.7369V174.116H14.7969V176H9.38489V167.54H14.7969V169.424H11.7369Z" fill="white"/>
<path d="M138.923 153.8H136.295V152H141.275V160.46H138.923V153.8ZM139.263 140.576V139.196H136.563V137.408H139.263V135.884H136.203V134H141.615V142.46H136.203V140.576H139.263ZM137.505 117.38H140.505L140.961 116H143.433L140.349 124.46H137.637L134.565 116H137.049L137.505 117.38ZM138.093 119.18L139.005 121.916L139.905 119.18H138.093ZM139.392 106.46C138.504 106.46 137.728 106.28 137.064 105.92C136.392 105.568 135.876 105.072 135.516 104.432C135.156 103.792 134.976 103.06 134.976 102.236C134.976 101.42 135.16 100.692 135.528 100.052C135.888 99.412 136.404 98.908 137.076 98.54C137.74 98.18 138.512 98 139.392 98H142.74V106.46H139.392ZM139.572 100.076C138.884 100.076 138.344 100.264 137.952 100.64C137.56 101.016 137.364 101.548 137.364 102.236C137.364 102.932 137.56 103.468 137.952 103.844C138.344 104.228 138.884 104.42 139.572 104.42H140.388V100.076H139.572ZM135.458 85.64C135.458 85.128 135.578 84.66 135.818 84.236C136.05 83.82 136.406 83.484 136.886 83.228C137.358 82.98 137.938 82.856 138.626 82.856H139.79V80H142.142V88.46H138.626C137.946 88.46 137.37 88.34 136.898 88.1C136.418 87.86 136.058 87.528 135.818 87.104C135.578 86.68 135.458 86.192 135.458 85.64ZM138.854 84.728C138.19 84.728 137.858 85.032 137.858 85.64C137.858 86.256 138.19 86.564 138.854 86.564H139.79V84.728H138.854ZM137.822 70.46V62H140.174V70.46H137.822ZM135.458 49.64C135.458 49.128 135.578 48.66 135.818 48.236C136.05 47.82 136.406 47.484 136.886 47.228C137.358 46.98 137.938 46.856 138.626 46.856H139.79L139.79 44H142.142L142.142 52.46H138.626C137.946 52.46 137.37 52.34 136.898 52.1C136.418 51.86 136.058 51.528 135.818 51.104C135.578 50.68 135.458 50.192 135.458 49.64ZM138.854 48.728C138.19 48.728 137.858 49.032 137.858 49.64C137.858 50.256 138.19 50.564 138.854 50.564H139.79V48.728H138.854ZM139.263 32.576V31.196H136.563V29.408H139.263V27.884H136.203V26H141.615V34.46H136.203V32.576H139.263Z" fill="white"/>
<path d="M75 173C75 169.134 78.134 166 82 166H150V187H82C78.134 187 75 183.866 75 180V173Z" fill="#323233"/>
<path d="M0 16H68C71.866 16 75 19.134 75 23V30C75 33.866 71.866 37 68 37H0V16Z" fill="#323233"/>
<path d="M10.9826 28.668H13.7426V30H9.30261V21.624H10.9826V28.668ZM20.9904 26.532C20.9904 26.772 20.9744 26.988 20.9424 27.18H16.0824C16.1224 27.66 16.2904 28.036 16.5864 28.308C16.8824 28.58 17.2464 28.716 17.6784 28.716C18.3024 28.716 18.7464 28.448 19.0104 27.912H20.8224C20.6304 28.552 20.2624 29.08 19.7184 29.496C19.1744 29.904 18.5064 30.108 17.7144 30.108C17.0744 30.108 16.4984 29.968 15.9864 29.688C15.4824 29.4 15.0864 28.996 14.7984 28.476C14.5184 27.956 14.3784 27.356 14.3784 26.676C14.3784 25.988 14.5184 25.384 14.7984 24.864C15.0784 24.344 15.4704 23.944 15.9744 23.664C16.4784 23.384 17.0584 23.244 17.7144 23.244C18.3464 23.244 18.9104 23.38 19.4064 23.652C19.9104 23.924 20.2984 24.312 20.5704 24.816C20.8504 25.312 20.9904 25.884 20.9904 26.532ZM19.2504 26.052C19.2424 25.62 19.0864 25.276 18.7824 25.02C18.4784 24.756 18.1064 24.624 17.6664 24.624C17.2504 24.624 16.8984 24.752 16.6104 25.008C16.3304 25.256 16.1584 25.604 16.0944 26.052H19.2504ZM21.7847 26.652C21.7847 25.98 21.9167 25.384 22.1807 24.864C22.4527 24.344 22.8167 23.944 23.2727 23.664C23.7367 23.384 24.2527 23.244 24.8207 23.244C25.3167 23.244 25.7487 23.344 26.1167 23.544C26.4927 23.744 26.7927 23.996 27.0167 24.3V23.352H28.7087V30H27.0167V29.028C26.8007 29.34 26.5007 29.6 26.1167 29.808C25.7407 30.008 25.3047 30.108 24.8087 30.108C24.2487 30.108 23.7367 29.964 23.2727 29.676C22.8167 29.388 22.4527 28.984 22.1807 28.464C21.9167 27.936 21.7847 27.332 21.7847 26.652ZM27.0167 26.676C27.0167 26.268 26.9367 25.92 26.7767 25.632C26.6167 25.336 26.4007 25.112 26.1287 24.96C25.8567 24.8 25.5647 24.72 25.2527 24.72C24.9407 24.72 24.6527 24.796 24.3887 24.948C24.1247 25.1 23.9087 25.324 23.7407 25.62C23.5807 25.908 23.5007 26.252 23.5007 26.652C23.5007 27.052 23.5807 27.404 23.7407 27.708C23.9087 28.004 24.1247 28.232 24.3887 28.392C24.6607 28.552 24.9487 28.632 25.2527 28.632C25.5647 28.632 25.8567 28.556 26.1287 28.404C26.4007 28.244 26.6167 28.02 26.7767 27.732C26.9367 27.436 27.0167 27.084 27.0167 26.676ZM29.9175 26.652C29.9175 25.98 30.0495 25.384 30.3135 24.864C30.5855 24.344 30.9535 23.944 31.4175 23.664C31.8815 23.384 32.3975 23.244 32.9655 23.244C33.3975 23.244 33.8095 23.34 34.2015 23.532C34.5935 23.716 34.9055 23.964 35.1375 24.276V21.12H36.8415V30H35.1375V29.016C34.9295 29.344 34.6375 29.608 34.2615 29.808C33.8855 30.008 33.4495 30.108 32.9535 30.108C32.3935 30.108 31.8815 29.964 31.4175 29.676C30.9535 29.388 30.5855 28.984 30.3135 28.464C30.0495 27.936 29.9175 27.332 29.9175 26.652ZM35.1495 26.676C35.1495 26.268 35.0695 25.92 34.9095 25.632C34.7495 25.336 34.5335 25.112 34.2615 24.96C33.9895 24.8 33.6975 24.72 33.3855 24.72C33.0735 24.72 32.7855 24.796 32.5215 24.948C32.2575 25.1 32.0415 25.324 31.8735 25.62C31.7135 25.908 31.6335 26.252 31.6335 26.652C31.6335 27.052 31.7135 27.404 31.8735 27.708C32.0415 28.004 32.2575 28.232 32.5215 28.392C32.7935 28.552 33.0815 28.632 33.3855 28.632C33.6975 28.632 33.9895 28.556 34.2615 28.404C34.5335 28.244 34.7495 28.02 34.9095 27.732C35.0695 27.436 35.1495 27.084 35.1495 26.676ZM43.0217 24.312C43.2377 24.008 43.5337 23.756 43.9097 23.556C44.2937 23.348 44.7297 23.244 45.2177 23.244C45.7857 23.244 46.2977 23.384 46.7537 23.664C47.2177 23.944 47.5817 24.344 47.8457 24.864C48.1177 25.376 48.2537 25.972 48.2537 26.652C48.2537 27.332 48.1177 27.936 47.8457 28.464C47.5817 28.984 47.2177 29.388 46.7537 29.676C46.2977 29.964 45.7857 30.108 45.2177 30.108C44.7297 30.108 44.2977 30.008 43.9217 29.808C43.5537 29.608 43.2537 29.356 43.0217 29.052V33.168H41.3417V23.352H43.0217V24.312ZM46.5377 26.652C46.5377 26.252 46.4537 25.908 46.2857 25.62C46.1257 25.324 45.9097 25.1 45.6377 24.948C45.3737 24.796 45.0857 24.72 44.7737 24.72C44.4697 24.72 44.1817 24.8 43.9097 24.96C43.6457 25.112 43.4297 25.336 43.2617 25.632C43.1017 25.928 43.0217 26.276 43.0217 26.676C43.0217 27.076 43.1017 27.424 43.2617 27.72C43.4297 28.016 43.6457 28.244 43.9097 28.404C44.1817 28.556 44.4697 28.632 44.7737 28.632C45.0857 28.632 45.3737 28.552 45.6377 28.392C45.9097 28.232 46.1257 28.004 46.2857 27.708C46.4537 27.412 46.5377 27.06 46.5377 26.652ZM50.3265 22.56C50.0305 22.56 49.7825 22.468 49.5825 22.284C49.3905 22.092 49.2945 21.856 49.2945 21.576C49.2945 21.296 49.3905 21.064 49.5825 20.88C49.7825 20.688 50.0305 20.592 50.3265 20.592C50.6225 20.592 50.8665 20.688 51.0585 20.88C51.2585 21.064 51.3585 21.296 51.3585 21.576C51.3585 21.856 51.2585 22.092 51.0585 22.284C50.8665 22.468 50.6225 22.56 50.3265 22.56ZM51.1545 23.352V30H49.4745V23.352H51.1545ZM54.4943 24.312C54.7103 24.008 55.0063 23.756 55.3823 23.556C55.7663 23.348 56.2023 23.244 56.6903 23.244C57.2583 23.244 57.7703 23.384 58.2263 23.664C58.6903 23.944 59.0543 24.344 59.3183 24.864C59.5903 25.376 59.7263 25.972 59.7263 26.652C59.7263 27.332 59.5903 27.936 59.3183 28.464C59.0543 28.984 58.6903 29.388 58.2263 29.676C57.7703 29.964 57.2583 30.108 56.6903 30.108C56.2023 30.108 55.7703 30.008 55.3943 29.808C55.0263 29.608 54.7263 29.356 54.4943 29.052V33.168H52.8143V23.352H54.4943V24.312ZM58.0103 26.652C58.0103 26.252 57.9263 25.908 57.7583 25.62C57.5983 25.324 57.3823 25.1 57.1103 24.948C56.8463 24.796 56.5583 24.72 56.2463 24.72C55.9423 24.72 55.6543 24.8 55.3823 24.96C55.1183 25.112 54.9023 25.336 54.7343 25.632C54.5743 25.928 54.4943 26.276 54.4943 26.676C54.4943 27.076 54.5743 27.424 54.7343 27.72C54.9023 28.016 55.1183 28.244 55.3823 28.404C55.6543 28.556 55.9423 28.632 56.2463 28.632C56.5583 28.632 56.8463 28.552 57.1103 28.392C57.3823 28.232 57.5983 28.004 57.7583 27.708C57.9263 27.412 58.0103 27.06 58.0103 26.652ZM67.1271 26.532C67.1271 26.772 67.1111 26.988 67.0791 27.18H62.2191C62.2591 27.66 62.4271 28.036 62.7231 28.308C63.0191 28.58 63.3831 28.716 63.8151 28.716C64.4391 28.716 64.8831 28.448 65.1471 27.912H66.9591C66.7671 28.552 66.3991 29.08 65.8551 29.496C65.3111 29.904 64.6431 30.108 63.8511 30.108C63.2111 30.108 62.6351 29.968 62.1231 29.688C61.6191 29.4 61.2231 28.996 60.9351 28.476C60.6551 27.956 60.5151 27.356 60.5151 26.676C60.5151 25.988 60.6551 25.384 60.9351 24.864C61.2151 24.344 61.6071 23.944 62.1111 23.664C62.6151 23.384 63.1951 23.244 63.8511 23.244C64.4831 23.244 65.0471 23.38 65.5431 23.652C66.0471 23.924 66.4351 24.312 66.7071 24.816C66.9871 25.312 67.1271 25.884 67.1271 26.532ZM65.3871 26.052C65.3791 25.62 65.2231 25.276 64.9191 25.02C64.6151 24.756 64.2431 24.624 63.8031 24.624C63.3871 24.624 63.0351 24.752 62.7471 25.008C62.4671 25.256 62.2951 25.604 62.2311 26.052H65.3871Z" fill="white"/>
<path d="M141.017 173.332H138.257V172H142.697V180.376H141.017V173.332ZM131.01 175.468C131.01 175.228 131.026 175.012 131.058 174.82H135.918C135.878 174.34 135.71 173.964 135.414 173.692C135.118 173.42 134.754 173.284 134.322 173.284C133.698 173.284 133.254 173.552 132.99 174.088H131.178C131.37 173.448 131.738 172.92 132.282 172.504C132.826 172.096 133.494 171.892 134.286 171.892C134.926 171.892 135.502 172.032 136.014 172.312C136.518 172.6 136.914 173.004 137.202 173.524C137.482 174.044 137.622 174.644 137.622 175.324C137.622 176.012 137.482 176.616 137.202 177.136C136.922 177.656 136.53 178.056 136.026 178.336C135.522 178.616 134.942 178.756 134.286 178.756C133.654 178.756 133.09 178.62 132.594 178.348C132.09 178.076 131.702 177.688 131.43 177.184C131.15 176.688 131.01 176.116 131.01 175.468ZM132.75 175.948C132.758 176.38 132.914 176.724 133.218 176.98C133.522 177.244 133.894 177.376 134.334 177.376C134.75 177.376 135.102 177.248 135.39 176.992C135.67 176.744 135.842 176.396 135.906 175.948H132.75ZM130.215 175.348C130.215 176.02 130.083 176.616 129.819 177.136C129.547 177.656 129.183 178.056 128.727 178.336C128.263 178.616 127.747 178.756 127.179 178.756C126.683 178.756 126.251 178.656 125.883 178.456C125.507 178.256 125.207 178.004 124.983 177.7V178.648H123.291V172H124.983V172.972C125.199 172.66 125.499 172.4 125.883 172.192C126.259 171.992 126.695 171.892 127.191 171.892C127.751 171.892 128.263 172.036 128.727 172.324C129.183 172.612 129.547 173.016 129.819 173.536C130.083 174.064 130.215 174.668 130.215 175.348ZM124.983 175.324C124.983 175.732 125.063 176.08 125.223 176.368C125.383 176.664 125.599 176.888 125.871 177.04C126.143 177.2 126.435 177.28 126.747 177.28C127.059 177.28 127.347 177.204 127.611 177.052C127.875 176.9 128.091 176.676 128.259 176.38C128.419 176.092 128.499 175.748 128.499 175.348C128.499 174.948 128.419 174.596 128.259 174.292C128.091 173.996 127.875 173.768 127.611 173.608C127.339 173.448 127.051 173.368 126.747 173.368C126.435 173.368 126.143 173.444 125.871 173.596C125.599 173.756 125.383 173.98 125.223 174.268C125.063 174.564 124.983 174.916 124.983 175.324ZM122.083 175.348C122.083 176.02 121.951 176.616 121.687 177.136C121.415 177.656 121.047 178.056 120.583 178.336C120.119 178.616 119.603 178.756 119.035 178.756C118.603 178.756 118.191 178.66 117.799 178.468C117.407 178.284 117.095 178.036 116.863 177.724V180.88H115.159V172H116.863V172.984C117.071 172.656 117.363 172.392 117.739 172.192C118.115 171.992 118.551 171.892 119.047 171.892C119.607 171.892 120.119 172.036 120.583 172.324C121.047 172.612 121.415 173.016 121.687 173.536C121.951 174.064 122.083 174.668 122.083 175.348ZM116.851 175.324C116.851 175.732 116.931 176.08 117.091 176.368C117.251 176.664 117.467 176.888 117.739 177.04C118.011 177.2 118.303 177.28 118.615 177.28C118.927 177.28 119.215 177.204 119.479 177.052C119.743 176.9 119.959 176.676 120.127 176.38C120.287 176.092 120.367 175.748 120.367 175.348C120.367 174.948 120.287 174.596 120.127 174.292C119.959 173.996 119.743 173.768 119.479 173.608C119.207 173.448 118.919 173.368 118.615 173.368C118.303 173.368 118.011 173.444 117.739 173.596C117.467 173.756 117.251 173.98 117.091 174.268C116.931 174.564 116.851 174.916 116.851 175.324ZM108.978 177.688C108.762 177.992 108.466 178.244 108.09 178.444C107.706 178.652 107.27 178.756 106.782 178.756C106.214 178.756 105.702 178.616 105.246 178.336C104.782 178.056 104.418 177.656 104.154 177.136C103.882 176.624 103.746 176.028 103.746 175.348C103.746 174.668 103.882 174.064 104.154 173.536C104.418 173.016 104.782 172.612 105.246 172.324C105.702 172.036 106.214 171.892 106.782 171.892C107.27 171.892 107.702 171.992 108.078 172.192C108.446 172.392 108.746 172.644 108.978 172.948V168.832H110.658V178.648H108.978V177.688ZM105.462 175.348C105.462 175.748 105.546 176.092 105.714 176.38C105.874 176.676 106.09 176.9 106.362 177.052C106.626 177.204 106.914 177.28 107.226 177.28C107.53 177.28 107.818 177.2 108.09 177.04C108.354 176.888 108.57 176.664 108.738 176.368C108.898 176.072 108.978 175.724 108.978 175.324C108.978 174.924 108.898 174.576 108.738 174.28C108.57 173.984 108.354 173.756 108.09 173.596C107.818 173.444 107.53 173.368 107.226 173.368C106.914 173.368 106.626 173.448 106.362 173.608C106.09 173.768 105.874 173.996 105.714 174.292C105.546 174.588 105.462 174.94 105.462 175.348ZM101.674 179.44C101.97 179.44 102.218 179.532 102.418 179.716C102.61 179.908 102.706 180.144 102.706 180.424C102.706 180.704 102.61 180.936 102.418 181.12C102.218 181.312 101.97 181.408 101.674 181.408C101.378 181.408 101.134 181.312 100.942 181.12C100.742 180.936 100.642 180.704 100.642 180.424C100.642 180.144 100.742 179.908 100.942 179.716C101.134 179.532 101.378 179.44 101.674 179.44ZM100.846 178.648V172H102.526V178.648H100.846ZM97.5057 177.688C97.2897 177.992 96.9937 178.244 96.6177 178.444C96.2337 178.652 95.7977 178.756 95.3097 178.756C94.7417 178.756 94.2297 178.616 93.7737 178.336C93.3097 178.056 92.9457 177.656 92.6817 177.136C92.4097 176.624 92.2737 176.028 92.2737 175.348C92.2737 174.668 92.4097 174.064 92.6817 173.536C92.9457 173.016 93.3097 172.612 93.7737 172.324C94.2297 172.036 94.7417 171.892 95.3097 171.892C95.7977 171.892 96.2297 171.992 96.6057 172.192C96.9737 172.392 97.2737 172.644 97.5057 172.948V168.832H99.1857V178.648H97.5057V177.688ZM93.9897 175.348C93.9897 175.748 94.0737 176.092 94.2417 176.38C94.4017 176.676 94.6177 176.9 94.8897 177.052C95.1537 177.204 95.4417 177.28 95.7537 177.28C96.0577 177.28 96.3457 177.2 96.6177 177.04C96.8817 176.888 97.0977 176.664 97.2657 176.368C97.4257 176.072 97.5057 175.724 97.5057 175.324C97.5057 174.924 97.4257 174.576 97.2657 174.28C97.0977 173.984 96.8817 173.756 96.6177 173.596C96.3457 173.444 96.0577 173.368 95.7537 173.368C95.4417 173.368 95.1537 173.448 94.8897 173.608C94.6177 173.768 94.4017 173.996 94.2417 174.292C94.0737 174.588 93.9897 174.94 93.9897 175.348ZM84.8729 175.468C84.8729 175.228 84.8889 175.012 84.9209 174.82H89.7809C89.7409 174.34 89.5729 173.964 89.2769 173.692C88.9809 173.42 88.6169 173.284 88.1849 173.284C87.5609 173.284 87.1169 173.552 86.8529 174.088H85.0409C85.2329 173.448 85.6009 172.92 86.1449 172.504C86.6889 172.096 87.3569 171.892 88.1489 171.892C88.7889 171.892 89.3649 172.032 89.8769 172.312C90.3809 172.6 90.7769 173.004 91.0649 173.524C91.3449 174.044 91.4849 174.644 91.4849 175.324C91.4849 176.012 91.3449 176.616 91.0649 177.136C90.7849 177.656 90.3929 178.056 89.8889 178.336C89.3849 178.616 88.8049 178.756 88.1489 178.756C87.5169 178.756 86.9529 178.62 86.4569 178.348C85.9529 178.076 85.5649 177.688 85.2929 177.184C85.0129 176.688 84.8729 176.116 84.8729 175.468ZM86.6129 175.948C86.6209 176.38 86.7769 176.724 87.0809 176.98C87.3849 177.244 87.7569 177.376 88.1969 177.376C88.6129 177.376 88.9649 177.248 89.2529 176.992C89.5329 176.744 89.7049 176.396 89.7689 175.948H86.6129Z" fill="white"/>
<defs>
<radialGradient id="paint0_radial_111_348" cx="0" cy="0" r="1" gradientUnits="userSpaceOnUse" gradientTransform="translate(75 100) rotate(90) scale(100 75)">
<stop stop-color="white" stop-opacity="0.24"/>
<stop offset="0.998264" stop-opacity="0.5"/>
</radialGradient>
</defs>
</svg>
